<svg id="Layer_1" data-name="Layer 1" xmlns="http://www.w3.org/2000/svg" viewBox="0 0 500 500"><defs><style>.cls-1{fill:#204d25;}.cls-2,.cls-5{fill:none;}.cls-2{stroke:#010101;stroke-linecap:round;stroke-linejoin:round;}.cls-3{fill:#9dd18f;}.cls-4{fill:#010101;}</style></defs><path class="cls-1" d="M462.07,276.31H147.33c-.21,0-8.6-1.85-9.85-7.56s2.81-23,15.92-23H405.72c.55-.15,45.63-12,67.72,19.21C473.44,265,482.78,276.31,462.07,276.31Z"/><path class="cls-1" d="M271.46,318.29c-12.12,4-27.53,5-43.49,5H141.52s-51.05-1.5-42.46-6.29,29.07-5.59,43.49-5.59h49.54a.2.2,0,0,0,.15-.34c-1.51-1.54-7.19-8.41-5.71-23.22a.22.22,0,0,1,.21-.2h18.31a.2.2,0,0,1,.2.17c.17,1.89,2.06,18.56,15.39,18.56,13.55,0,21.74-17.1,22.45-18.62a.17.17,0,0,1,.18-.11h16.57a.18.18,0,0,1,.2.22c-.42,2-3.88,17.22-14.1,24a.19.19,0,0,0,.08.36C250.79,312.54,282.72,314.55,271.46,318.29Z"/><path class="cls-1" d="M473.16,318.29c-12.12,4-27.53,5-43.49,5H343.22s-51.05-1.5-42.46-6.29,29.07-5.59,43.49-5.59h49.54a.21.21,0,0,0,.16-.34c-1.52-1.54-7.2-8.41-5.72-23.22a.22.22,0,0,1,.21-.2h18.31a.18.18,0,0,1,.2.17c.18,1.89,2.06,18.56,15.4,18.56,13.54,0,21.74-17.1,22.44-18.62a.18.18,0,0,1,.18-.11h16.57a.19.19,0,0,1,.21.22c-.43,2-3.89,17.22-14.11,24a.19.19,0,0,0,.08.36C452.49,312.54,484.42,314.55,473.16,318.29Z"/><path class="cls-1" d="M146.11,223.68a7.85,7.85,0,0,1-7.6,9.78H118.72c-3.71,0-7.27-2.3-8.17-5.9a7.84,7.84,0,0,1,7.6-9.78h19.79C141.65,217.78,145.21,220.08,146.11,223.68Z"/><path class="cls-2" d="M375.26,138.53a4.7,4.7,0,1,0,4.67,4.71A4.7,4.7,0,0,0,375.26,138.53Zm-59.05-17.66c-45.44,3-100.95,30.45-127.8,96.61a.21.21,0,0,0,.19.3H332.37a.21.21,0,0,0,.05-.41c-13.74-2.86-93.07-20.21-76.88-36.86,17.6-18.12,80.71-43.71,81.41-44,0,0,0,0,0,0C337.39,136.18,361.31,117.88,316.21,120.87Z"/><path class="cls-1" d="M346.55,112.26c-.11-.05,2.8-7,2.86-7.08,1.49-2.57,14-28.82,3.71-32.87-19.69-7.75-20.73,18.38-29.33,35.2-.05.1-.05.21-.17.21-3.54,0-55,.84-87.8,24.2a.21.21,0,0,1-.11,0H112.29a7.72,7.72,0,0,0-5.51,2.29,7.85,7.85,0,0,0,5.51,13.39h104.6a.2.2,0,0,1,.16.34c-3.9,3.84-8.23,8.41-12.82,13.76a.21.21,0,0,1-.16.08H79a7.84,7.84,0,0,0-5.54,2.29,7.72,7.72,0,0,0-2.26,4.7c-.5,4.72,3.74,8.65,8.49,8.65H191.53a.2.2,0,0,1,.17.32c-3.19,4.44-6.38,9.17-9.49,14.27a.19.19,0,0,1-.18.1H60.33a7.89,7.89,0,0,0-5.55,2.3,7.73,7.73,0,0,0-2.25,4.7c-.5,4.72,3.73,8.65,8.48,8.65H173a.2.2,0,0,1,.19.29,230.63,230.63,0,0,0-10.59,23.7.2.2,0,0,0,.19.28H420.72a.2.2,0,0,0,.2-.15C421.81,228,431.52,150.21,346.55,112.26ZM337,136.51s0,0,0,0c-.7.29-63.81,25.88-81.41,44-16.19,16.65,63.14,34,76.88,36.86a.21.21,0,0,1-.05.41H188.6a.21.21,0,0,1-.19-.3c26.85-66.16,82.36-93.61,127.8-96.61C361.31,117.88,337.39,136.18,337,136.51Zm38.29,11.41a4.7,4.7,0,1,1,4.67-4.68A4.69,4.69,0,0,1,375.26,147.92Zm34.49,72.55c-7.6,1.74-12.91-3.56-12.63-20.47.22-15.44-11.49-42.16-13.58-46.83a.2.2,0,0,1,.31-.23c2.26,1.75,10.36,8.72,20.83,25.79C417.08,199,417.32,218.69,409.75,220.47Z"/><path class="cls-1" d="M60.45,139.8a7.85,7.85,0,0,1-7.84,7.84H33c-4.81,0-9.06-4-8.49-8.79a7.87,7.87,0,0,1,2.24-4.6A7.65,7.65,0,0,1,32.25,132H52.61A7.83,7.83,0,0,1,60.45,139.8Z"/><path class="cls-1" d="M191.56,114a7.81,7.81,0,0,1-2.24,4.59,7.71,7.71,0,0,1-5.55,2.3H57.6A7.84,7.84,0,0,1,49.75,113a7.85,7.85,0,0,1,7.85-7.85H183.07C187.88,105.18,192.13,109.2,191.56,114Z"/><path class="cls-1" d="M244.87,114a7.77,7.77,0,0,1-2.25,4.59,7.67,7.67,0,0,1-5.54,2.3H217.5c-4.77,0-9-3.94-8.53-8.69a7.85,7.85,0,0,1,7.75-7h19.66C241.19,105.18,245.43,109.2,244.87,114Z"/><path class="cls-3" d="M337,136.51s0,0,0,0c-.7.29-63.81,25.88-81.41,44-16.19,16.65,63.14,34,76.88,36.86a.21.21,0,0,1-.05.41H188.6a.21.21,0,0,1-.19-.3c26.85-66.16,82.36-93.61,127.8-96.61C361.31,117.88,337.39,136.18,337,136.51Z"/><path class="cls-3" d="M379.93,143.24a4.7,4.7,0,1,1-4.67-4.71A4.68,4.68,0,0,1,379.93,143.24Z"/><path class="cls-3" d="M409.75,220.47c-7.6,1.74-12.91-3.56-12.63-20.47.22-15.44-11.49-42.16-13.58-46.83a.2.2,0,0,1,.31-.23c2.26,1.75,10.36,8.72,20.83,25.79C417.08,199,417.32,218.69,409.75,220.47Z"/><path class="cls-4" d="M155.77,344.32l-3.23,24.4a19.85,19.85,0,0,0-3.36-.63,31.33,31.33,0,0,0-3.35-.18,29.07,29.07,0,0,0-8.15,1.13,20.31,20.31,0,0,0-6.86,3.44,17,17,0,0,0-4.74,5.78,17.75,17.75,0,0,0-1.76,8.16,12.91,12.91,0,0,0,1,5.2,9.6,9.6,0,0,0,2.69,3.64,11.11,11.11,0,0,0,4.11,2.14,18.17,18.17,0,0,0,5.2.7,22.54,22.54,0,0,0,4.45-.47,36.63,36.63,0,0,0,4.57-1.21,41.91,41.91,0,0,0,4.4-1.74c1.42-.65,2.73-1.32,3.93-2l-2.31,27.18a36.24,36.24,0,0,1-4.89,2.05q-2.64.9-5.41,1.56a49,49,0,0,1-5.55,1,41.28,41.28,0,0,1-5.32.35,34.58,34.58,0,0,1-24.75-10.17A35,35,0,0,1,99,403.45a35.85,35.85,0,0,1-2.69-13.91,60.22,60.22,0,0,1,2.83-18.65,45.65,45.65,0,0,1,8.33-15.35,38.94,38.94,0,0,1,13.62-10.41,43.41,43.41,0,0,1,18.7-3.82A53.81,53.81,0,0,1,148,342,26.83,26.83,0,0,1,155.77,344.32Z"/><path class="cls-4" d="M230.19,384.8A42,42,0,0,1,229,395a39.46,39.46,0,0,1-3.5,9.16,37.84,37.84,0,0,1-5.55,7.84,35.45,35.45,0,0,1-7.34,6.1,36.32,36.32,0,0,1-8.88,4,37.52,37.52,0,0,1-20.09.08,37.07,37.07,0,0,1-8.82-3.73,34.74,34.74,0,0,1-7.43-5.78,35.61,35.61,0,0,1-5.67-7.52,38.74,38.74,0,0,1-3.64-8.87,37.11,37.11,0,0,1-1.3-9.89,40.34,40.34,0,0,1,4.71-19,39.16,39.16,0,0,1,5.52-7.86,36.62,36.62,0,0,1,7.26-6.19,35.26,35.26,0,0,1,8.7-4,33.51,33.51,0,0,1,9.89-1.44,43.24,43.24,0,0,1,15.3,2.6,32.44,32.44,0,0,1,19.37,19.11A41.64,41.64,0,0,1,230.19,384.8Zm-25.67,1.5a16.33,16.33,0,0,0-.72-4.83,13.27,13.27,0,0,0-2.11-4.16,10.76,10.76,0,0,0-3.44-2.95,9.65,9.65,0,0,0-4.71-1.13,11.41,11.41,0,0,0-4.86,1A11.2,11.2,0,0,0,185,376.9a11.82,11.82,0,0,0-2.34,4,14.3,14.3,0,0,0-.81,4.82,17.73,17.73,0,0,0,.7,4.86,14.21,14.21,0,0,0,2.08,4.39,10.77,10.77,0,0,0,3.44,3.18,9.2,9.2,0,0,0,4.77,1.22,10.81,10.81,0,0,0,8.56-4,13.34,13.34,0,0,0,2.31-4.19A15.11,15.11,0,0,0,204.52,386.3Z"/><path class="cls-4" d="M305.71,384.8A42,42,0,0,1,304.5,395a39.46,39.46,0,0,1-3.5,9.16,37.84,37.84,0,0,1-5.55,7.84,35.45,35.45,0,0,1-7.34,6.1,36.32,36.32,0,0,1-8.88,4,37.52,37.52,0,0,1-20.09.08,37.07,37.07,0,0,1-8.82-3.73,34.74,34.74,0,0,1-7.43-5.78,35.61,35.61,0,0,1-5.67-7.52,38.74,38.74,0,0,1-3.64-8.87,37.11,37.11,0,0,1-1.3-9.89,40.34,40.34,0,0,1,4.71-19,39.16,39.16,0,0,1,5.52-7.86,36.62,36.62,0,0,1,7.26-6.19,35.26,35.26,0,0,1,8.7-4,33.51,33.51,0,0,1,9.89-1.44,43.15,43.15,0,0,1,15.29,2.6A32.42,32.42,0,0,1,303,369.5,41.64,41.64,0,0,1,305.71,384.8ZM280,386.3a16.33,16.33,0,0,0-.72-4.83,13.48,13.48,0,0,0-2.11-4.16,10.76,10.76,0,0,0-3.44-2.95,9.66,9.66,0,0,0-4.72-1.13,11.39,11.39,0,0,0-4.85,1,11.2,11.2,0,0,0-3.68,2.68,11.82,11.82,0,0,0-2.34,4,14.3,14.3,0,0,0-.81,4.82,17.36,17.36,0,0,0,.7,4.86,14.21,14.21,0,0,0,2.08,4.39,10.77,10.77,0,0,0,3.44,3.18,9.2,9.2,0,0,0,4.77,1.22,10.81,10.81,0,0,0,8.56-4,13.34,13.34,0,0,0,2.31-4.19A15.11,15.11,0,0,0,280,386.3Z"/><path class="cls-4" d="M383.08,342.82l-27.87,38.51,23.48,40.94L351.86,427l-17.58-25-.93,26.14-24.05.92,1.85-88.59,27,1.51L336,368.14l17.92-27.64Z"/><path class="cls-4" d="M406.5,352.65a20.15,20.15,0,0,1-1.18,6,29.34,29.34,0,0,1-3.21,6.51,36.22,36.22,0,0,1-5,6.07,28.18,28.18,0,0,1-6.57,4.77s0-.49-.05-1.36-.09-1.93-.15-3.18-.12-2.59-.2-4-.14-2.7-.17-3.82a11.34,11.34,0,0,1-5.67-4.45,12.11,12.11,0,0,1-2.08-6.88,11.69,11.69,0,0,1,.95-4.68,12.34,12.34,0,0,1,2.6-3.85,12.77,12.77,0,0,1,3.85-2.63,11.88,11.88,0,0,1,9.45,0,12.51,12.51,0,0,1,6.51,6.48,10.73,10.73,0,0,1,.92,4.68Z"/><path class="cls-4" d="M475.55,379.71a48,48,0,0,1-2.08,14.6,39.83,39.83,0,0,1-5.81,11.56,38.84,38.84,0,0,1-8.88,8.71,50.61,50.61,0,0,1-11.28,6,66.19,66.19,0,0,1-13,3.47,88.14,88.14,0,0,1-14.19,1.13c-1.81,0-3.59-.05-5.32-.15s-3.51-.23-5.32-.43l1.62-77.6a72.68,72.68,0,0,1,13.09-2.86,108.18,108.18,0,0,1,13.39-.84,44.77,44.77,0,0,1,15.21,2.49,34.11,34.11,0,0,1,12,7.17,32.25,32.25,0,0,1,7.83,11.45A39.66,39.66,0,0,1,475.55,379.71Zm-23.71,3.7a22.49,22.49,0,0,0-.67-6,14.25,14.25,0,0,0-2.37-5.12,12.27,12.27,0,0,0-4.19-3.59,13.79,13.79,0,0,0-6.07-1.47l-2.31,35.85a16.54,16.54,0,0,0,6.3-2.28,19.35,19.35,0,0,0,4.89-4.34,20,20,0,0,0,3.18-5.73,21.46,21.46,0,0,0,1.24-6.5Z"/><rect class="cls-5" width="500" height="500"/></svg>