<svg xmlns="http://www.w3.org/2000/svg" version="1.1" xmlns:xlink="http://www.w3.org/1999/xlink" xmlns:svgjs="http://svgjs.dev/svgjs" width="1920" height="1080" preserveAspectRatio="none" viewBox="0 0 1920 1080">
    <g mask="url(&quot;#SvgjsMask1077&quot;)" fill="none">
        <path d="M1059.51-45.94C896.19 18.42 959.41 516.64 640.39 517.44 321.38 518.24 28.73 178.53-197.84 171.84" stroke="rgba(13, 71, 31, 0.4588235294117647)" stroke-width="2"></path>
        <path d="M1572.58-45.88C1279.36 49.22 1194.28 895.19 781.74 900.15 369.2 905.11 220.87 442.76-9.1 424.95" stroke="rgba(13, 71, 31, 0.4588235294117647)" stroke-width="2"></path>
        <path d="M1474.1-8.48C1234.55 90.24 1216.89 806.32 866.65 831.21 516.41 856.1 562.93 696.21 259.2 696.21-44.53 696.21-192.68 830.4-348.25 831.21" stroke="rgba(13, 71, 31, 0.4588235294117647)" stroke-width="2"></path>
        <path d="M996.71-41.28C776.2 149.25 909.79 1021.34 541.33 1031.78 172.86 1042.22-108.05 531.12-369.44 513.38" stroke="rgba(13, 71, 31, 0.4588235294117647)" stroke-width="2"></path>
        <path d="M1538.3-135.91C1236.47-69.76 1117.56 715.31 649.46 722.9 181.35 730.49-7.17 455.86-239.39 452.9" stroke="rgba(13, 71, 31, 0.4588235294117647)" stroke-width="2"></path>
    </g>
    <defs>
        <mask id="SvgjsMask1077">
            <rect width="1920" height="1080" fill="#ffffff"></rect>
        </mask>
    </defs>
</svg>